<?xml version="1.0" standalone="no"?>
<!DOCTYPE svg PUBLIC "-//W3C//DTD SVG 20010904//EN"
 "http://www.w3.org/TR/2001/REC-SVG-20010904/DTD/svg10.dtd">
<svg version="1.0" xmlns="http://www.w3.org/2000/svg"
 width="800.000000pt" height="800.000000pt" viewBox="0 0 800.000000 800.000000"
 preserveAspectRatio="xMidYMid meet">
<metadata>
Created by potrace 1.16, written by Peter Selinger 2001-2019
</metadata>
<g transform="translate(0.000000,800.000000) scale(0.100000,-0.100000)"
fill="#000000" stroke="none">
<path d="M940 4056 l0 -743 43 -12 c48 -14 246 -77 270 -87 15 -5 17 49 19
641 l3 647 23 18 c28 23 57 15 85 -22 16 -22 18 -50 20 -302 3 -315 -2 -296
89 -315 68 -15 97 -13 143 8 86 40 133 123 142 254 20 286 -93 434 -409 538
-105 34 -272 81 -365 103 l-63 14 0 -742z"/>
<path d="M2926 4408 c-3 -13 -6 -35 -6 -50 l0 -28 563 0 c620 0 604 2 651 -63
29 -40 30 -159 1 -201 -37 -55 -44 -56 -542 -56 -270 0 -473 -4 -493 -10 -86
-24 -152 -104 -168 -202 -8 -48 -9 -240 -2 -350 0 -4 46 -5 103 -3 l102 5 5
184 c5 167 7 187 26 213 40 53 35 53 519 53 493 0 526 3 594 58 110 88 124
297 26 395 -76 76 -37 72 -741 75 l-632 3 -6 -23z"/>
<path d="M5238 4418 c-47 -12 -113 -69 -141 -122 -21 -39 -22 -55 -27 -346 -6
-340 -8 -353 -74 -384 -29 -14 -79 -16 -356 -16 l-321 0 3 -52 3 -53 375 2
c312 1 382 4 418 17 63 23 98 51 129 104 l28 47 5 305 c7 438 -22 410 418 410
l302 0 0 50 0 50 -362 -1 c-201 -1 -379 -5 -400 -11z"/>
<path d="M7104 4382 c-43 -27 -119 -74 -169 -105 -49 -31 -151 -93 -225 -138
-74 -45 -175 -108 -225 -139 -49 -32 -195 -122 -323 -201 -234 -144 -271 -174
-256 -214 4 -9 18 -21 31 -26 14 -5 270 -9 594 -9 l569 0 0 -52 0 -53 105 3
105 3 0 50 0 49 105 0 105 0 0 55 0 55 -105 0 -105 0 0 359 c0 347 -1 359 -21
385 -34 43 -88 37 -185 -22z m-4 -432 l0 -290 -472 0 c-260 0 -468 4 -463 8 6
5 57 38 115 74 117 73 461 286 557 345 35 21 102 64 150 95 49 31 94 57 101
57 9 1 12 -63 12 -289z"/>
<path d="M715 3848 c-418 -149 -488 -179 -525 -225 -16 -21 -20 -37 -16 -61 9
-59 70 -96 226 -137 91 -25 124 -29 250 -29 80 -1 162 3 183 7 l37 8 0 84 c0
47 -3 85 -7 85 -5 0 -53 -16 -108 -35 -138 -48 -275 -48 -275 0 0 20 29 33
223 101 l167 59 0 97 c0 54 -3 98 -7 97 -5 0 -71 -23 -148 -51z"/>
<path d="M1525 3801 c-144 -26 -183 -40 -188 -65 -8 -34 -8 -174 0 -179 5 -3
89 24 188 59 178 64 277 88 322 79 13 -3 34 -7 48 -10 16 -3 25 -12 25 -24 0
-21 -38 -40 -210 -99 -185 -65 -339 -121 -360 -132 -16 -9 -18 -21 -17 -102 1
-56 6 -92 12 -91 21 4 526 185 696 249 179 67 227 148 132 220 -42 32 -153 73
-253 94 -102 21 -285 22 -395 1z"/>
<path d="M2055 3325 c-49 -49 -16 -125 55 -125 30 0 43 6 59 26 62 79 -43 170
-114 99z"/>
</g>
</svg>
