<?xml version="1.0" standalone="no"?>
<!DOCTYPE svg PUBLIC "-//W3C//DTD SVG 20010904//EN"
 "http://www.w3.org/TR/2001/REC-SVG-20010904/DTD/svg10.dtd">
<svg version="1.0" xmlns="http://www.w3.org/2000/svg"
 width="900.000000pt" height="900.000000pt" viewBox="0 0 900.000000 900.000000"
 preserveAspectRatio="xMidYMid meet">
<metadata>
Created by potrace 1.16, written by Peter Selinger 2001-2019
</metadata>
<g transform="translate(0.000000,900.000000) scale(0.100000,-0.100000)"
fill="#000000" stroke="none">
<path d="M4028 8940 c151 -267 182 -324 182 -331 0 -5 -902 -9 -2105 -9
l-2105 0 0 -530 0 -530 62 -40 c34 -22 79 -46 101 -52 45 -13 -120 -45 1627
312 487 100 1137 232 1445 295 795 162 958 195 978 201 16 5 18 -2 15 -82 l-3
-87 -590 -252 c-324 -139 -1013 -433 -1530 -654 -517 -221 -948 -410 -959
-421 -53 -53 52 -149 299 -273 185 -92 452 -190 653 -238 122 -30 277 -32 314
-4 15 11 461 369 992 794 l966 775 0 395 -1 396 -180 185 c-100 103 -172 169
-161 150z"/>
<path d="M4806 8784 l-176 -185 0 -394 0 -393 528 -423 c290 -233 730 -586
977 -784 248 -199 460 -367 472 -373 136 -73 858 160 1160 374 95 68 125 122
86 156 -10 9 -124 61 -253 116 -217 92 -1964 839 -2565 1096 l-260 111 -3 83
c-3 74 -1 82 16 82 10 0 106 -18 213 -40 107 -23 457 -95 779 -160 655 -134
1694 -346 2470 -505 283 -58 531 -105 551 -105 37 0 109 33 166 76 l33 25 0
530 0 529 -2106 0 c-1993 0 -2106 1 -2099 17 6 16 110 205 172 311 14 23 23
42 20 42 -3 0 -84 -84 -181 -186z"/>
<path d="M3492 6758 c-603 -568 -742 -701 -740 -704 3 -2 205 68 843 295 105
37 192 64 194 59 2 -5 -4 -28 -12 -51 -9 -23 -75 -208 -147 -412 -72 -203
-165 -464 -206 -579 -41 -115 -73 -210 -72 -211 3 -3 668 755 695 792 7 9 15
15 17 12 2 -2 9 -625 15 -1384 6 -759 16 -1967 22 -2685 l10 -1305 127 -285
127 -285 3 3135 c1 1724 0 3140 -2 3146 -2 6 -51 38 -108 71 -241 142 -393
324 -469 561 -13 39 -27 72 -31 72 -5 0 -124 -109 -266 -242z"/>
<path d="M5211 6928 c-50 -154 -145 -305 -258 -408 -60 -55 -192 -146 -276
-190 l-47 -25 0 -3145 c1 -2641 3 -3141 14 -3120 8 14 66 142 129 286 l116
261 16 2139 c9 1176 19 2386 23 2689 l7 550 355 -407 c195 -224 356 -405 358
-404 1 2 -4 21 -12 42 -8 22 -51 140 -95 264 -232 656 -294 831 -315 887 -13
34 -22 64 -19 66 2 3 52 -13 111 -33 374 -133 608 -216 756 -269 94 -33 171
-59 173 -57 5 5 -997 946 -1006 946 -4 0 -17 -32 -30 -72z"/>
</g>
</svg>
